<svg width="58" height="56" viewBox="0 0 58 56" fill="none" xmlns="http://www.w3.org/2000/svg">
<path d="M28.75 4.10235V54.7218M28.75 4.10235L31.8304 2.86382C38.8401 0.0453949 46.6599 0.0453944 53.6696 2.86382C55.5301 3.61185 56.75 5.42307 56.75 7.43722V48.9892C56.75 51.7549 53.9711 53.6461 51.4164 52.6189C45.8531 50.3821 39.6469 50.3821 34.0836 52.6189L28.7884 54.748C28.77 54.7553 28.75 54.7417 28.75 54.7218M28.75 4.10235L25.6696 2.86382C18.6599 0.0453949 10.8401 0.0453944 3.83039 2.86382C1.96994 3.61185 0.75 5.42307 0.75 7.43722V48.9892C0.75 51.7549 3.52892 53.6461 6.08358 52.6189C11.6469 50.3821 17.8531 50.3821 23.4164 52.6189L28.7116 54.748C28.73 54.7553 28.75 54.7417 28.75 54.7218" stroke="white" stroke-width="1.5"/>
</svg>
