<svg width="58" height="56" viewBox="0 0 58 56" fill="none" xmlns="http://www.w3.org/2000/svg">
<path d="M0.75 13.0361C0.75 11.9316 1.64543 11.0361 2.75 11.0361H54.75C55.8546 11.0361 56.75 11.9316 56.75 13.0361V25.0067C56.75 25.8755 56.1891 26.6449 55.362 26.9107L29.974 35.0711C29.1781 35.327 28.3219 35.327 27.526 35.0711L2.13798 26.9107C1.31087 26.6449 0.75 25.8755 0.75 25.0067V13.0361Z" stroke="white" stroke-width="1.5"/>
<path d="M44.4583 26.4651L44.4583 21.3223" stroke="white" stroke-width="1.5" stroke-linecap="round" stroke-linejoin="round"/>
<path d="M3.08203 26.4639L3.08203 50.7494C3.08203 52.9586 4.87289 54.7494 7.08203 54.7494H50.4154C52.6245 54.7494 54.4154 52.9586 54.4154 50.7494V26.4639" stroke="white" stroke-width="1.5"/>
<path d="M38.0846 11.0357V2.75C38.0846 1.64543 37.1892 0.75 36.0846 0.75H21.418C20.3134 0.75 19.418 1.64543 19.418 2.75L19.418 11.0357" stroke="white" stroke-width="1.5"/>
</svg>
