<svg width="57" height="55" viewBox="0 0 57 55" fill="none" xmlns="http://www.w3.org/2000/svg">
<path d="M0.750153 0.75L6.30816 1.90881C7.16574 2.08761 7.80716 2.80371 7.89081 3.67573L8.59015 10.9662M8.59015 10.9662L11.7463 38.3841C11.8625 39.3935 12.7171 40.1554 13.7331 40.1554H46.9903C48.6089 40.1554 50.0163 39.0456 50.3938 37.4716L56.0699 13.8026C56.4168 12.3564 55.3206 10.9662 53.8334 10.9662H8.59015Z" stroke="white" stroke-width="1.5" stroke-linecap="round"/>
<path d="M48.1038 31.3984H33.5205" stroke="white" stroke-width="1.5" stroke-linecap="round" stroke-linejoin="round"/>
<path d="M18.9503 46.4932C20.9742 46.4933 22.6503 48.2096 22.6505 50.3711C22.6505 52.5328 20.9743 54.2499 18.9503 54.25C16.9263 54.25 15.2502 52.5329 15.2502 50.3711C15.2504 48.2095 16.9264 46.4932 18.9503 46.4932Z" fill="#644244" stroke="white"/>
<path d="M44.1505 46.4932C46.1744 46.4933 47.8505 48.2096 47.8507 50.3711C47.8507 52.5328 46.1745 54.2499 44.1505 54.25C42.1265 54.25 40.4503 52.5329 40.4503 50.3711C40.4506 48.2095 42.1266 46.4932 44.1505 46.4932Z" fill="#644244" stroke="white"/>
</svg>
