<svg width="58" height="57" viewBox="0 0 58 57" fill="none" xmlns="http://www.w3.org/2000/svg">
<path d="M0.75 23C0.75 21.741 1.34278 20.5554 2.35 19.8L26.35 1.8C27.7722 0.733333 29.7278 0.733333 31.15 1.8L55.15 19.8C56.1572 20.5554 56.75 21.741 56.75 23V52C56.75 54.2091 54.9591 56 52.75 56H38.5921C38.0398 56 37.5921 55.5523 37.5921 55V41.2C37.5921 40.0954 36.6967 39.2 35.5921 39.2H21.9079C20.8033 39.2 19.9079 40.0954 19.9079 41.2V55C19.9079 55.5523 19.4602 56 18.9079 56H4.75C2.54086 56 0.75 54.2091 0.75 52L0.75 23Z" stroke="white" stroke-width="1.5"/>
</svg>
